# xmcd
#
# Track frame offsets:
#	150
#	14050
#	27325
#	42900
#	56875
#	73925
#	84875
#	97575
#	106875
#	117600
#	126950
#	137125
#	149325
#	159675
#	169975
#	180400
#
# Disc length: 2538 seconds
#
# Revision: 2
# Processed by: cddbd v1.5.1PL0 Copyright (c) Steve Scherf et al.
# Submitted via: audiograbber 1.83.01
#
DISCID=e409e810
DTITLE=Various Artist - The Best Of The West
DYEAR=1900
DGENRE=Country
TTITLE0=Orion - Ebony Eyes
TTITLE1=Dave Dudley - Pool Shark
TTITLE2=Patti Page - No Aces
TTITLE3=Roy Drusky - Vaya Con Dios
TTITLE4=Roy Drusky - The Last Farewell
TTITLE5=Jimmy C. Newman - Shrimp Boats
TTITLE6=Leroy Van Dyke - The Auctioneer
TTITLE7=Jonny Cash - Luther´s Boogie
TTITLE8=Conway Twitty - Born To Sing The Blues
TTITLE9=Carl Mann - South Of The Border
TTITLE10=Sleepy Laeef - Sittin´ On The Top Of The World
TTITLE11=Jonny Horton - Words
TTITLE12=Carol Channing - Fool, Fool, Fool
TTITLE13=Charli Walker - Pick Me Up On Your Way Down
TTITLE14=Hank Locklin - Let Me Be The One
TTITLE15=Leroy Van Dyke - Walk On By
EXTD=Country And Western Top-Hits Vol.4
EXTT0=
EXTT1=
EXTT2=
EXTT3=
EXTT4=
EXTT5=
EXTT6=
EXTT7=
EXTT8=
EXTT9=
EXTT10=
EXTT11=
EXTT12=
EXTT13=
EXTT14=
EXTT15=
PLAYORDER=
